<svg xmlns="http://www.w3.org/2000/svg" width="96" height="96" viewBox="0 0 96 96"><defs></defs><title>15-snow-rn</title><g id="Forecast_Icons_Outlined" data-name="Forecast Icons Outlined"><rect fill="none" width="96" height="96"/><circle fill="#f8f8f8" cx="22.13" cy="54.43" r="3.52"/><circle fill="#fff" cx="53.91" cy="60.24" r="3.52"/><circle fill="#f8f8f8" cx="35.21" cy="73.71" r="3.52"/><circle fill="#f8f8f8" cx="47.32" cy="71.37" r="3.52"/><circle fill="#f0f0f0" cx="22.71" cy="69.03" r="3.52"/><path fill="#fff" d="M64.44,44.5a10.17,10.17,0,0,0-7.55-9.81,7.21,7.21,0,0,0-9-9.74,16.16,16.16,0,0,0-31.71,3.8,13.08,13.08,0,0,0,2.4,25.93l.37,0v0H54.38A10.17,10.17,0,0,0,64.44,44.5Z"/><circle fill="#f8f8f8" cx="32.87" cy="63.56" r="2.34"/><circle fill="#fff" cx="46.15" cy="83.09" r="2.34"/><circle fill="#fff" cx="59.82" cy="74.89" r="2.34"/><circle fill="#fff" cx="41.51" cy="59.92" r="2.34"/><circle fill="#f0f0f0" cx="64.43" cy="58.62" r="2.34"/><circle fill="#fff" cx="25.45" cy="81.53" r="2.34"/><circle fill="#f8f8f8" cx="34.13" cy="90.66" r="2.34"/><circle fill="#f0f0f0" cx="60.72" cy="87.41" r="2.34"/><circle fill="#f8f8f8" cx="66.56" cy="67.3" r="2.34"/><circle fill="#f0f0f0" cx="17.26" cy="89.36" r="2.34"/><circle fill="#f0f0f0" cx="3.64" cy="69.25" r="2.34"/><circle fill="#f8f8f8" cx="13.59" cy="76.35" r="2.34"/><circle fill="#fff" cx="12.29" cy="63.2" r="2.34"/></g></svg>